<?xml version="1.0" encoding="utf-8"?>
<!-- Generator: Adobe Illustrator 18.0.0, SVG Export Plug-In . SVG Version: 6.00 Build 0)  -->
<!DOCTYPE svg PUBLIC "-//W3C//DTD SVG 1.1//EN" "http://www.w3.org/Graphics/SVG/1.1/DTD/svg11.dtd">
<svg version="1.1" xmlns="http://www.w3.org/2000/svg" xmlns:xlink="http://www.w3.org/1999/xlink" x="0px" y="0px"
	 viewBox="0 0 188 188.1" style="enable-background:new 0 0 188 188.1;" xml:space="preserve">
<style type="text/css">
	.st0{display:none;}
	.st1{display:inline;}
	.st2{fill:#FFFFFF;}
</style>
<g id="grid">
</g>
<g id="eq" class="st0">
	<g class="st1">
		<path class="st2" d="M38.2,132.7h-30v-8h30c25,0,37.9-21.8,49.3-41c9.1-15.4,17.7-29.9,31.5-29.9c12.4,0,25.3,15.3,40.2,33
			c9.4,11.2,19.2,22.8,29.3,31l-5.1,6.2c-10.6-8.7-20.7-20.6-30.3-32.1c-12.5-14.8-25.4-30.2-34-30.2c-9.3,0-16.4,12-24.7,26
			C82.5,107.8,67.8,132.7,38.2,132.7z"/>
	</g>
</g>
<g id="comp">
	<g>
		<path d="M65,100.8c4-2.7,6.5-5,9.3-6.6c9.2-5.6,30.7-14.1,51.7-21.8V69H65V100.8z"/>
		<path d="M127,69v3c3-1.2,6.5-2,9.7-3H127z"/>
		<path d="M64,112.2c-4,4-8.9,8.8-13.5,12.8H64V112.2z"/>
		<path d="M126,80.9C106,88.2,86.7,96,78.5,101c-3.8,2.3-8.5,5.9-13.5,10.3V125h61V80.9z"/>
		<path d="M127,80.5V125h52.9c3.4-9,5.2-19.3,5.2-30c0-9.2-1.4-18-3.9-26h-20.4C151.2,72,139,76.1,127,80.5z"/>
		<path d="M38.3,126H10.2c2.6,7,5.9,13.4,10,19.4C24.7,140.3,31.2,134,38.3,126z"/>
		<path d="M64,101.6V69H8.5c-2.5,8-3.9,16.8-3.9,26c0,10.7,1.9,21,5.2,30h29.4C47.4,117,56,108.2,64,101.6z"/>
		<path d="M126,126H65v54.2c10,3.2,19.3,5,29.7,5c11,0,21.3-2,31.3-5.5V126z"/>
		<path d="M64,68V9.9C38,19.4,17.3,41,8.8,68H64z"/>
		<path d="M64,126H49.5c-9.7,10-19,19.9-24.6,26.1C35.2,164.5,49,174.3,64,179.9V126z"/>
		<path d="M127,126v53.2c24-9.3,43.5-28.2,52.5-53.2H127z"/>
		<path d="M163.7,68h17.2c-0.6-2-1.2-3.5-1.8-5.2C176.5,63.6,171,65,163.7,68z"/>
		<path d="M65,68h61V10.1c-10-3.6-20.4-5.5-31.3-5.5C84.3,4.6,75,6.4,65,9.6V68z"/>
		<path d="M127,68h12.5c16.5-6,30.9-11,36.3-12.8c-10-20.3-27.8-36.5-48.8-44.7V68z"/>
	</g>
</g>
<g id="rev" class="st0">
	<g class="st1">
		<g>
			<line class="st2" x1="77" y1="110.2" x2="77" y2="196.7"/>
			<rect x="71" y="110.2" class="st2" width="12" height="86.5"/>
		</g>
		<g>
			<line class="st2" x1="138.3" y1="153.3" x2="138.3" y2="199.7"/>
			<rect x="132.8" y="153.3" class="st2" width="11" height="46.3"/>
		</g>
		<g>
			<line class="st2" x1="107.8" y1="135.1" x2="107.8" y2="201.7"/>
			<rect x="101.8" y="135.1" class="st2" width="12" height="66.6"/>
		</g>
		<g>
			<polyline class="st2" points="39,172 39,58.3 49.7,58.3 49.7,180.1 			"/>
			<polygon class="st2" points="50.2,180.1 49.2,180.1 49.2,58.8 39.5,58.8 39.5,172 38.5,172 38.5,57.8 50.2,57.8 			"/>
		</g>
	</g>
</g>
</svg>
