<?xml version="1.0" encoding="utf-8"?>
<!-- Generator: Adobe Illustrator 18.0.0, SVG Export Plug-In . SVG Version: 6.00 Build 0)  -->
<!DOCTYPE svg PUBLIC "-//W3C//DTD SVG 1.1//EN" "http://www.w3.org/Graphics/SVG/1.1/DTD/svg11.dtd">
<svg version="1.1" xmlns="http://www.w3.org/2000/svg" xmlns:xlink="http://www.w3.org/1999/xlink" x="0px" y="0px"
	 viewBox="0 0 188 188.1" enable-background="new 0 0 188 188.1" xml:space="preserve">
<g id="Layer_1">
	<g>
		<path d="M65,68h61V10.1c-10-3.6-20.4-5.5-31.3-5.5C84.3,4.6,75,6.4,65,9.6V68z"/>
		<rect x="65" y="69" width="61" height="56"/>
		<path d="M127,125h52.9c3.4-9,5.2-19.3,5.2-30c0-9.2-1.4-18-3.9-26H127V125z"/>
		<path d="M127,68h53.9C172.6,41,153,20.3,127,10.5V68z"/>
		<path d="M64,69H8.5c-2.5,8-3.9,16.8-3.9,26c0,10.7,1.9,21,5.2,30H64V69z"/>
		<path d="M64,68V9.9C38,19.4,17.3,41,8.8,68H64z"/>
		<path d="M127,126v53.2c24-9.3,43.5-28.2,52.5-53.2H127z"/>
		<path d="M126,126H65v54.2c10,3.2,19.3,5,29.7,5c11,0,21.3-2,31.3-5.5V126z"/>
		<path d="M64,126H10.2c9.2,25,28.8,44.9,53.8,53.9V126z"/>
	</g>
</g>
<g id="Layer_2">
</g>
</svg>
