<?xml version="1.0" encoding="utf-8"?>
<!-- Generator: Adobe Illustrator 18.0.0, SVG Export Plug-In . SVG Version: 6.00 Build 0)  -->
<!DOCTYPE svg PUBLIC "-//W3C//DTD SVG 1.1//EN" "http://www.w3.org/Graphics/SVG/1.1/DTD/svg11.dtd">
<svg version="1.1" xmlns="http://www.w3.org/2000/svg" xmlns:xlink="http://www.w3.org/1999/xlink" x="0px" y="0px"
	 viewBox="0 0 188 188.1" style="enable-background:new 0 0 188 188.1;" xml:space="preserve">
<style type="text/css">
	.st0{display:none;}
	.st1{display:inline;}
	.st2{fill:#FFFFFF;}
	.st3{display:inline;fill:none;stroke:#FFFFFF;stroke-width:8;stroke-miterlimit:10;}
</style>
<g id="grid">
</g>
<g id="eq" class="st0">
	<g class="st1">
		<path class="st2" d="M38.2,132.7h-30v-8h30c25,0,37.9-21.8,49.3-41c9.1-15.4,17.7-29.9,31.5-29.9c12.4,0,25.3,15.3,40.2,33
			c9.4,11.2,19.2,22.8,29.3,31l-5.1,6.2c-10.6-8.7-20.7-20.6-30.3-32.1c-12.5-14.8-25.4-30.2-34-30.2c-9.3,0-16.4,12-24.7,26
			C82.5,107.8,67.8,132.7,38.2,132.7z"/>
	</g>
</g>
<g id="comp" class="st0">
	<path class="st3" d="M16.6,155.8c0,0,39.9-46,60-58.2S179.3,58,179.3,58"/>
</g>
<g id="rev">
	<g>
		<rect x="50" y="69" width="14" height="56"/>
		<path d="M38,69H8.5c-2.5,8-3.9,16.8-3.9,26c0,10.7,1.9,21,5.2,30H38V69z"/>
		<path d="M64,126H50v47.4c5,2.5,9,4.7,14,6.5V126z"/>
		<path d="M71,126h-6v54.2c2,0.7,4,1.2,6,1.8V126z"/>
		<path d="M127,68h53.9C172.6,41,153,20.3,127,10.5V68z"/>
		<path d="M127,125h52.9c3.4-9,5.2-19.3,5.2-30c0-9.2-1.4-18-3.9-26H127V125z"/>
		<path d="M102,135h12v48.2c4-0.9,8-2.1,12-3.5V126H83v58.4c4,0.5,7.9,0.8,11.9,0.8c2.4,0,5.1-0.1,7.1-0.3V135z"/>
		<path d="M38,126H10.2c5.7,16,15.8,29.3,27.8,39.4V126z"/>
		<path d="M127,126v53.2c2-0.8,4-1.6,6-2.5V153h11v17.7c16-10.5,28.7-25.7,35.5-44.7H127z"/>
		<polygon points="126,125 126,69 65,69 65,125 71,125 71,110 83,110 83,125 		"/>
		<path d="M38,68V58h12v10h14V9.9C38,19.4,17.3,41,8.8,68H38z"/>
		<path d="M65,68h61V10.1c-10-3.6-20.4-5.5-31.3-5.5C84.3,4.6,75,6.4,65,9.6V68z"/>
	</g>
</g>
</svg>
