<?xml version="1.0" encoding="utf-8"?>
<!-- Generator: Adobe Illustrator 18.0.0, SVG Export Plug-In . SVG Version: 6.00 Build 0)  -->
<!DOCTYPE svg PUBLIC "-//W3C//DTD SVG 1.1//EN" "http://www.w3.org/Graphics/SVG/1.1/DTD/svg11.dtd">
<svg version="1.1" id="Layer_1" xmlns="http://www.w3.org/2000/svg" xmlns:xlink="http://www.w3.org/1999/xlink" x="0px" y="0px"
	 viewBox="0 0 900 500" enable-background="new 0 0 900 500" xml:space="preserve">
<path stroke="#666666" stroke-miterlimit="10" d="M840.7,491H59.3c-8.8,0-16.5-7.1-16.5-16.5V30c0-8.8,7.1-16.5,16.5-16.5h781.3
	c8.8,0,16.5,7.1,16.5,16.5v444.5C857.1,483.9,849.5,491,840.7,491z"/>
<rect x="86.3" y="48.1" fill="#F2F2F2" width="736.3" height="411"/>
<rect x="120.3" y="81.7" fill="#FFFFFF" stroke="#CCCCCC" stroke-miterlimit="10" width="658.8" height="336.3"/>
<rect x="120.3" y="81.7" fill="#DD4752" width="658.8" height="39.6"/>
<path fill="#E6E6E6" d="M591.8,360.8H308.2c-7.1,0-13.2,6-13.2,13.2v1.1c0,7.1,6,13.2,13.2,13.2h283c7.1,0,13.2-6,13.2-13.2v-1.6
	C604.4,366.3,598.9,360.8,591.8,360.8z"/>
<circle fill="#FFFFFF" stroke="#CCCCCC" stroke-width="3" stroke-miterlimit="1" cx="450" cy="373.4" r="29.7"/>
<path fill="#B3B3B3" stroke="#CCCCCC" stroke-miterlimit="1" d="M465.4,376.2l-22,12.6c-1.6,0.5-3.3,0-3.3-2.2v-25.3
	c0-1.6,1.6-2.7,3.3-2.2l22,12.6C467,373.4,467,375.6,465.4,376.2z"/>
<path fill="#BFD5DD" d="M597.3,319.6H302.7c-3.3,0-5.5-2.2-5.5-5.5v-14.3c0-3.3,2.2-5.5,5.5-5.5h294c3.3,0,5.5,2.2,5.5,5.5v14.3
	C602.7,316.8,600,319.6,597.3,319.6z"/>
<path fill="#BFD5DD" d="M597.3,290.5H302.7c-3.3,0-5.5-2.2-5.5-5.5v-14.3c0-3.3,2.2-5.5,5.5-5.5h294c3.3,0,5.5,2.2,5.5,5.5V285
	C602.7,287.7,600,290.5,597.3,290.5z"/>
<path fill="#BFD5DD" d="M597.3,261.3H302.7c-3.3,0-5.5-2.2-5.5-5.5v-14.3c0-3.3,2.2-5.5,5.5-5.5h294c3.3,0,5.5,2.2,5.5,5.5v14.3
	C602.7,258.6,600,261.3,597.3,261.3z"/>
<path fill="#BFD5DD" d="M597.3,232.2H302.7c-3.3,0-5.5-2.2-5.5-5.5v-14.3c0-3.3,2.2-5.5,5.5-5.5h294c3.3,0,5.5,2.2,5.5,5.5v14.3
	C602.7,230,600,232.2,597.3,232.2z"/>
<g>
	<path fill="#E6E6E6" d="M438.5,187.2H302.2c-3.3,0-5.5-2.7-5.5-5.5v-14.8c0-3.3,2.7-5.5,5.5-5.5h136.3c3.3,0,5.5,2.7,5.5,5.5v14.8
		C444,184.4,441.2,187.2,438.5,187.2z"/>
	<path fill="#E6E6E6" d="M597.8,187.2H458.2c-3.3,0-5.5-2.7-5.5-5.5v-14.8c0-3.3,2.7-5.5,5.5-5.5h140.1c3.3,0,5.5,2.7,5.5,5.5v14.8
		C603.8,184.4,601.1,187.2,597.8,187.2z"/>
</g>
<path fill="#A33131" d="M589.6,108h-394c-3.8,0-6.6-2.7-6.6-6.6v-0.5c0-3.8,2.7-6.6,6.6-6.6H589c3.8,0,6.6,2.7,6.6,6.6v0.5
	C596.2,105.3,592.9,108,589.6,108z"/>
<path fill="#FFFC99" d="M286.8,106.4h-90.7c-2.7,0-4.9-2.2-4.9-4.9l0,0c0-2.7,2.2-4.9,4.9-4.9h90.7c2.7,0,4.9,2.2,4.9,4.9l0,0
	C291.8,104.2,289.6,106.4,286.8,106.4z"/>
<path fill="#AA2121" d="M704.4,114.6h-22.5c-3.8,0-6.6-2.7-6.6-6.6V95.4c0-3.8,2.7-6.6,6.6-6.6h22.5c3.8,0,6.6,2.7,6.6,6.6V108
	C711,111.3,707.7,114.6,704.4,114.6z"/>
<text transform="matrix(1 0 0 1 683.3505 107.9089)" fill="#FFFFFF" font-family="'ArialMT'" font-size="17.439">20</text>
<g enable-background="new    ">
	<path fill="#FFFFFF" d="M626.9,103.1h1.1c0,0.5,0,0.5,0.5,1.1c0,0,0.5,0.5,1.1,0.5s0.5,0,1.1,0s0.5,0,1.1,0s0.5-0.5,0.5-0.5v-0.5
		v-0.5l-0.5-0.5c0,0-0.5,0-1.6-0.5c-0.5,0-1.1-0.5-1.6-0.5c-0.5,0-0.5-0.5-1.1-0.5s-0.5-0.5-0.5-1.1c0-0.5,0-0.5,0.5-1.1
		c0-0.5,0.5-0.5,1.1-1.1c0.5-0.5,1.1-0.5,1.6-0.5s1.1,0,1.6,0.5c0.5,0,1.1,0.5,1.1,1.1c0,0.5,0.5,0.5,0.5,1.1h-1.1
		c0-0.5,0-1.1-0.5-1.1s-0.5-0.5-1.6-0.5c-0.5,0-1.1,0-1.6,0.5c-0.5,0-0.5,0.5-0.5,1.1c0,0.5,0,0.5,0.5,0.5c0,0,0.5,0.5,1.6,0.5
		c1.1,0,1.6,0.5,1.6,0.5c0.5,0,1.1,0.5,1.1,1.1s0.5,0.5,0.5,1.1c0,0.5,0,1.1-0.5,1.1s-0.5,0.5-1.1,1.1c-0.5,0-1.1,0.5-1.6,0.5
		c-0.5,0-1.6,0-1.6-0.5c0-0.5-1.1-0.5-1.1-1.1C626.9,104.2,626.9,103.6,626.9,103.1z"/>
	<path fill="#FFFFFF" d="M641.2,102.5l1.1,0.5c0,1.1-0.5,1.6-1.1,2.2c-0.5,0.5-1.1,0.5-2.2,0.5c-1.1,0-1.6,0-2.2-0.5
		c-0.5-0.5-1.1-1.1-1.1-1.6c0-0.5-0.5-1.6-0.5-2.2c0-1.1,0-1.6,0.5-2.2c0.5-0.5,0.5-1.1,1.6-1.6c0.5-0.5,1.1-0.5,2.2-0.5
		c1.1,0,1.6,0,2.2,0.5c0.5,0.5,1.1,1.1,1.1,1.6h-1.1c0-0.5-0.5-1.1-1.1-1.1s-1.1-0.5-1.6-0.5c-0.5,0-1.1,0-1.6,0.5
		c-0.5,0.5-0.5,0.5-1.1,1.1c0,0.5,0,1.1,0,1.6c0,0.5,0,1.1,0.5,1.6c0,0.5,0.5,1.1,1.1,1.1s1.1,0.5,1.6,0.5c0.5,0,1.1,0,1.6-0.5
		C640.7,103.6,640.7,103.1,641.2,102.5z"/>
	<path fill="#FFFFFF" d="M642.9,101.4c0-1.6,0.5-2.2,1.1-3.3s1.6-1.1,2.7-1.1c0.5,0,1.6,0,2.2,0.5c0.5,0.5,1.1,1.1,1.6,1.6
		c0.5,0.5,0.5,1.6,0.5,2.2c0,1.1,0,1.6-0.5,2.2c-0.5,0.5-1.1,1.1-1.6,1.6c-0.5,0.5-1.1,0.5-2.2,0.5c-0.5,0-1.6,0-2.2-0.5
		c-0.5-0.5-1.1-1.1-1.6-1.6C643.4,103.1,642.9,102,642.9,101.4z M644.5,101.4c0,1.1,0,1.6,0.5,2.2c0.5,0.5,1.1,1.1,2.2,1.1
		s1.6-0.5,2.2-1.1c0.5-0.5,0.5-1.6,0.5-2.7c0-0.5,0-1.1-0.5-1.6c0-0.5-0.5-1.1-1.1-1.1s-1.1-0.5-1.6-0.5c-0.5,0-1.6,0-2.2,0.5
		C644.5,99.2,644.5,100.3,644.5,101.4z"/>
	<path fill="#FFFFFF" d="M652.7,105.3V97h3.8c0.5,0,1.1,0,1.6,0s0.5,0.5,1.1,0.5s0.5,0.5,0.5,1.1c0,0.5,0,1.1-0.5,1.6
		c-0.5,0.5-1.1,0.5-1.6,0.5c0.5,0,0.5,0.5,0.5,0.5c0.5,0.5,0.5,0.5,1.1,1.1l1.6,2.2h-1.6l-1.1-1.6c-0.5-0.5-0.5-1.1-0.5-1.1
		l-0.5-0.5h-0.5H656h-1.1v3.8H652.7z M653.8,100.9h2.2c0.5,0,1.1,0,1.1,0s0.5,0,0.5-0.5v-0.5c0-0.5,0-0.5-0.5-1.1
		c-0.5,0-0.5-0.5-1.1-0.5h-2.7v2.7H653.8z"/>
	<path fill="#FFFFFF" d="M661,105.3V97h6v1.1h-4.9v2.7h4.4v1.1h-4.4v2.7h4.9v1.1h-6V105.3z"/>
</g>
</svg>
