<?xml version="1.0" encoding="utf-8"?>
<!-- Generator: Adobe Illustrator 18.0.0, SVG Export Plug-In . SVG Version: 6.00 Build 0)  -->
<!DOCTYPE svg PUBLIC "-//W3C//DTD SVG 1.1//EN" "http://www.w3.org/Graphics/SVG/1.1/DTD/svg11.dtd">
<svg version="1.1" xmlns="http://www.w3.org/2000/svg" xmlns:xlink="http://www.w3.org/1999/xlink" x="0px" y="0px"
	 viewBox="0 0 1962.5 1218.4" style="enable-background:new 0 0 1962.5 1218.4;" xml:space="preserve">
<style type="text/css">
	.st0{display:none;}
	.st1{fill:none;stroke:#808080;stroke-width:2;stroke-miterlimit:10;}
	.st2{opacity:0.47;fill:none;stroke:url(#SVGID_1_);stroke-width:2;stroke-miterlimit:10;}
	.st3{fill:#F2F2F2;}
	.st4{fill:#FFFFFF;stroke:#CCCCCC;stroke-miterlimit:10;}
	.st5{fill:#DD4752;}
	.st6{fill:#E6E6E6;}
	.st7{fill:#FFFFFF;stroke:#CCCCCC;stroke-width:3;stroke-miterlimit:1;}
	.st8{fill:#B3B3B3;stroke:#CCCCCC;stroke-miterlimit:1;}
	.st9{fill:#BFD5DD;}
	.st10{fill:#A33131;}
	.st11{fill:#FFFC99;}
	.st12{fill:#AA2121;}
	.st13{fill:#FFFFFF;}
	.st14{font-family:'ArialMT';}
	.st15{font-size:27.7632;}
	.st16{enable-background:new    ;}
	.st17{fill:none;}
	.st18{fill:none;stroke:#000000;stroke-width:24;stroke-miterlimit:10;}
	.st19{opacity:0.46;fill:none;stroke:url(#SVGID_2_);stroke-width:2;stroke-miterlimit:10;}
	.st20{fill:url(#SVGID_3_);}
	.st21{fill:none;stroke:#4D4D4D;stroke-width:3;stroke-linecap:round;stroke-miterlimit:10;}
	.st22{fill:#4D4D4D;}
	.st23{display:inline;fill:#0071BC;}
	.st24{font-family:'MyriadPro-BoldCond';}
	.st25{font-size:119;}
</style>
<g id="guides" class="st0">
</g>
<g id="Desktop">
	<g>
		
			<image style="overflow:visible;opacity:0.75;" width="5514" height="3592" xlink:href="1A2BD500.png"  transform="matrix(0.24 0 0 0.24 319.6776 261.2777)">
		</image>
		<g>
			<path d="M1592.8,1093.7H369.7c-15.1,0-27.4-12.3-27.4-27.4v-762c0-15.1,12.3-27.4,27.4-27.4h1223.1c15.1,0,27.4,12.3,27.4,27.4
				v762C1620.2,1081.4,1607.9,1093.7,1592.8,1093.7z"/>
			<path class="st1" d="M1592.8,1093.7H369.7c-15.1,0-27.4-12.3-27.4-27.4v-762c0-15.1,12.3-27.4,27.4-27.4h1223.1
				c15.1,0,27.4,12.3,27.4,27.4v762C1620.2,1081.4,1607.9,1093.7,1592.8,1093.7z"/>
			<linearGradient id="SVGID_1_" gradientUnits="userSpaceOnUse" x1="981.2457" y1="1094.6859" x2="981.2457" y2="275.8777">
				<stop  offset="0" style="stop-color:#FFFFFF"/>
				<stop  offset="1" style="stop-color:#000000"/>
			</linearGradient>
			<path class="st2" d="M1592.8,1093.7H369.7c-15.1,0-27.4-12.3-27.4-27.4v-762c0-15.1,12.3-27.4,27.4-27.4h1223.1
				c15.1,0,27.4,12.3,27.4,27.4v762C1620.2,1081.4,1607.9,1093.7,1592.8,1093.7z"/>
		</g>
	</g>
	<rect x="399.6" y="359.5" class="st3" width="1172.1" height="654.3"/>
	<rect x="453.8" y="412.9" class="st4" width="1048.8" height="535.3"/>
	<rect x="453.8" y="412.9" class="st5" width="1048.8" height="63"/>
	<path class="st6" d="M1204.3,857.2H753c-11.4,0-21,9.6-21,21v1.7c0,11.4,9.6,21,21,21h450.5c11.4,0,21-9.6,21-21v-2.6
		C1224.4,866,1215.7,857.2,1204.3,857.2z"/>
	<circle class="st7" cx="978.6" cy="877.3" r="47.2"/>
	<path class="st8" d="M1003.1,881.7l-35,20.1c-2.6,0.9-5.2,0-5.2-3.5v-40.2c0-2.6,2.6-4.4,5.2-3.5l35,20.1
		C1005.8,877.3,1005.8,880.8,1003.1,881.7z"/>
	<path class="st9" d="M1213.1,791.6H744.2c-5.2,0-8.7-3.5-8.7-8.7v-22.7c0-5.2,3.5-8.7,8.7-8.7h468c5.2,0,8.7,3.5,8.7,8.7v22.7
		C1221.8,787.2,1217.4,791.6,1213.1,791.6z"/>
	<path class="st9" d="M1213.1,745.3H744.2c-5.2,0-8.7-3.5-8.7-8.7v-22.7c0-5.2,3.5-8.7,8.7-8.7h468c5.2,0,8.7,3.5,8.7,8.7v22.7
		C1221.8,740.9,1217.4,745.3,1213.1,745.3z"/>
	<path class="st9" d="M1213.1,698.9H744.2c-5.2,0-8.7-3.5-8.7-8.7v-22.7c0-5.2,3.5-8.7,8.7-8.7h468c5.2,0,8.7,3.5,8.7,8.7v22.7
		C1221.8,694.5,1217.4,698.9,1213.1,698.9z"/>
	<path class="st9" d="M1213.1,652.5H744.2c-5.2,0-8.7-3.5-8.7-8.7v-22.7c0-5.2,3.5-8.7,8.7-8.7h468c5.2,0,8.7,3.5,8.7,8.7v22.7
		C1221.8,649,1217.4,652.5,1213.1,652.5z"/>
	<g>
		<path class="st6" d="M960.3,580.8H743.3c-5.2,0-8.7-4.4-8.7-8.7v-23.6c0-5.2,4.4-8.7,8.7-8.7h216.9c5.2,0,8.7,4.4,8.7,8.7v23.6
			C969,576.4,964.6,580.8,960.3,580.8z"/>
		<path class="st6" d="M1213.9,580.8H991.8c-5.2,0-8.7-4.4-8.7-8.7v-23.6c0-5.2,4.4-8.7,8.7-8.7h223.1c5.2,0,8.7,4.4,8.7,8.7v23.6
			C1223.6,576.4,1219.2,580.8,1213.9,580.8z"/>
	</g>
	<path class="st10" d="M1200.8,454.9H573.6c-6.1,0-10.5-4.4-10.5-10.5v-0.9c0-6.1,4.4-10.5,10.5-10.5H1200c6.1,0,10.5,4.4,10.5,10.5
		v0.9C1211.3,450.5,1206.1,454.9,1200.8,454.9z"/>
	<path class="st11" d="M718.8,452.2H574.5c-4.4,0-7.9-3.5-7.9-7.9l0,0c0-4.4,3.5-7.9,7.9-7.9h144.3c4.4,0,7.9,3.5,7.9,7.9l0,0
		C726.7,448.7,723.2,452.2,718.8,452.2z"/>
	<path class="st12" d="M1383.6,465.3h-35.9c-6.1,0-10.5-4.4-10.5-10.5v-20.1c0-6.1,4.4-10.5,10.5-10.5h35.9
		c6.1,0,10.5,4.4,10.5,10.5v20.1C1394.1,460.1,1388.9,465.3,1383.6,465.3z"/>
	<text transform="matrix(1 0 0 1 1350.1427 454.6534)" class="st13 st14 st15">20</text>
	<g class="st16">
		<path class="st13" d="M1260.3,447h1.7c0,0.9,0,0.9,0.9,1.7c0,0,0.9,0.9,1.7,0.9c0.9,0,0.9,0,1.7,0s0.9,0,1.7,0
			c0.9,0,0.9-0.9,0.9-0.9v-0.9V447l-0.9-0.9c0,0-0.9,0-2.6-0.9c-0.9,0-1.7-0.9-2.6-0.9c-0.9,0-0.9-0.9-1.7-0.9s-0.9-0.9-0.9-1.7
			c0-0.9,0-0.9,0.9-1.7c0-0.9,0.9-0.9,1.7-1.7c0.9-0.9,1.7-0.9,2.6-0.9s1.7,0,2.6,0.9c0.9,0,1.7,0.9,1.7,1.7s0.9,0.9,0.9,1.7h-1.7
			c0-0.9,0-1.7-0.9-1.7c-0.9,0-0.9-0.9-2.6-0.9c-0.9,0-1.7,0-2.6,0.9c-0.9,0-0.9,0.9-0.9,1.7c0,0.9,0,0.9,0.9,0.9
			c0,0,0.9,0.9,2.6,0.9c1.7,0,2.6,0.9,2.6,0.9c0.9,0,1.7,0.9,1.7,1.7s0.9,0.9,0.9,1.7c0,0.9,0,1.7-0.9,1.7s-0.9,0.9-1.7,1.7
			c-0.9,0-1.7,0.9-2.6,0.9s-2.6,0-2.6-0.9s-1.7-0.9-1.7-1.7C1260.3,448.7,1260.3,447.9,1260.3,447z"/>
		<path class="st13" d="M1283.1,446.1l1.7,0.9c0,1.7-0.9,2.6-1.7,3.5s-1.7,0.9-3.5,0.9s-2.6,0-3.5-0.9c-0.9-0.9-1.7-1.7-1.7-2.6
			c0-0.9-0.9-2.6-0.9-3.5c0-1.7,0-2.6,0.9-3.5c0.9-0.9,0.9-1.7,2.6-2.6c0.9-0.9,1.7-0.9,3.5-0.9c1.7,0,2.6,0,3.5,0.9
			c0.9,0.9,1.7,1.7,1.7,2.6h-1.7c0-0.9-0.9-1.7-1.7-1.7s-1.7-0.9-2.6-0.9s-1.7,0-2.6,0.9c-0.9,0.9-0.9,0.9-1.7,1.7
			c0,0.9,0,1.7,0,2.6s0,1.7,0.9,2.6c0,0.9,0.9,1.7,1.7,1.7s1.7,0.9,2.6,0.9s1.7,0,2.6-0.9C1282.2,447.9,1282.2,447,1283.1,446.1z"/>
		<path class="st13" d="M1285.7,444.4c0-2.6,0.9-3.5,1.7-5.2c0.9-1.7,2.6-1.7,4.4-1.7c0.9,0,2.6,0,3.5,0.9s1.7,1.7,2.6,2.6
			c0.9,0.9,0.9,2.6,0.9,3.5c0,1.7,0,2.6-0.9,3.5c-0.9,0.9-1.7,1.7-2.6,2.6s-1.7,0.9-3.5,0.9c-0.9,0-2.6,0-3.5-0.9
			c-0.9-0.9-1.7-1.7-2.6-2.6C1286.5,447,1285.7,445.2,1285.7,444.4z M1288.3,444.4c0,1.7,0,2.6,0.9,3.5c0.9,0.9,1.7,1.7,3.5,1.7
			c1.7,0,2.6-0.9,3.5-1.7c0.9-0.9,0.9-2.6,0.9-4.4c0-0.9,0-1.7-0.9-2.6c0-0.9-0.9-1.7-1.7-1.7s-1.7-0.9-2.6-0.9
			c-0.9,0-2.6,0-3.5,0.9C1288.3,440.9,1288.3,442.6,1288.3,444.4z"/>
		<path class="st13" d="M1301.4,450.5v-13.1h6.1c0.9,0,1.7,0,2.6,0s0.9,0.9,1.7,0.9c0.9,0,0.9,0.9,0.9,1.7c0,0.9,0,1.7-0.9,2.6
			c-0.9,0.9-1.7,0.9-2.6,0.9c0.9,0,0.9,0.9,0.9,0.9c0.9,0.9,0.9,0.9,1.7,1.7l2.6,3.5h-2.6l-1.7-2.6c-0.9-0.9-0.9-1.7-0.9-1.7
			l-0.9-0.9h-0.9h-0.9h-1.7v6.1H1301.4z M1303.2,443.5h3.5c0.9,0,1.7,0,1.7,0s0.9,0,0.9-0.9v-0.9c0-0.9,0-0.9-0.9-1.7
			c-0.9,0-0.9-0.9-1.7-0.9h-4.4v4.4H1303.2z"/>
		<path class="st13" d="M1314.5,450.5v-13.1h9.6v1.7h-7.9v4.4h7v1.7h-7v4.4h7.9v1.7h-9.6V450.5z"/>
	</g>
	<line class="st17" x1="174.4" y1="1286.6" x2="208.1" y2="1251.4"/>
	<g>
		<path d="M68.1,1198.1c0,0-0.4,4.8,5.9,19.5s10,17.8,10,17.8l145-61.6c0,0,2-2.5-5.3-19.8c-7.3-17.2-10.6-17.5-10.6-17.5
			L68.1,1198.1z"/>
		<rect x="265.1" y="1083.4" transform="matrix(-0.3908 -0.9205 0.9205 -0.3908 -663.0951 1827.3519)" width="16.1" height="99.4"/>
		<path d="M333.2,1121.7l11.2-14.9c3.1-4.1,1.4-8-3.6-8.6l-18.5-2.3c-5.1-0.6-7.6,2.7-5.6,7.4l7.3,17.1
			C325.9,1125.3,330.1,1125.8,333.2,1121.7z"/>
		<path class="st18" d="M76.1,1218.3c0,0-164.5,75.9-216.3-35.4S-118,968-216,940s-198-47.6-284,8.2s87,146.5,25.5,250.2
			s-253.5,88.2-253.5,88.2"/>
	</g>
	<g>
		<path d="M1927.7,1150.5c0,0-0.2,4.8-8.2,18.6c-8,13.7-12.1,16.3-12.1,16.3l-135.5-78.8c0,0-1.7-2.7,7.7-18.9
			c9.4-16.1,12.6-16,12.6-16L1927.7,1150.5z"/>
		<rect x="1725.4" y="1011.4" transform="matrix(0.5025 -0.8646 0.8646 0.5025 -54.8126 2026.3802)" width="16" height="98.9"/>
		<path d="M1675.6,1042.1l-9.2-16.1c-2.5-4.4-0.4-8,4.7-8l18.5,0.1c5.1,0,7.2,3.6,4.6,8l-9.3,16
			C1682.3,1046.5,1678.1,1046.5,1675.6,1042.1z"/>
	</g>
	<path class="st18" d="M1920,1167.4c0,0,150.8,89.9,215-36.7c0,0,56.1-35.9,46.4-174.1s-53.1-129.4-92.7-174.5
		c-97.1-110.9-103,52.4-289.2,49.1c-186.2-3.2-175.3-241.7-86.2-344.1c89.1-102.3,275.1-181.4,426-93.6s133.9,372.6,377.3,429
		c243.4,56.4,425.4,206.4,425.4,206.4"/>
	<g>
		<g>
			<path d="M1896.1,180.5c0,0,0.4-4.8-5.8-19.4c-6.2-14.6-9.9-17.7-9.9-17.7L1736,204.7c0,0-2,2.5,5.3,19.7
				c7.3,17.2,10.5,17.4,10.5,17.4L1896.1,180.5z"/>
			<rect x="1684.1" y="195.8" transform="matrix(0.3908 0.9205 -0.9205 0.3908 1256.5785 -1408.1072)" width="16" height="98.9"/>
			<path d="M1632.4,256.6l-11.1,14.8c-3.1,4.1-1.4,7.9,3.6,8.5l18.4,2.3c5.1,0.6,7.6-2.7,5.6-7.4l-7.2-17
				C1639.6,253,1635.4,252.5,1632.4,256.6z"/>
		</g>
		<path class="st18" d="M1884.6,163.7c0,0,159.8-50.1,129.1-175.8"/>
	</g>
	<g>
		<path d="M56.9,190.3c0,0-0.4-4.8,5.9-19.5c6.2-14.7,10-17.8,10-17.8l145,61.6c0,0,2,2.5-5.3,19.8c-7.3,17.2-10.6,17.5-10.6,17.5
			L56.9,190.3z"/>
		<rect x="254" y="205.6" transform="matrix(-0.3908 0.9205 -0.9205 -0.3908 599.4207 113.9603)" width="16.1" height="99.4"/>
		<path d="M322,266.8l11.2,14.9c3.1,4.1,1.4,7.9-3.6,8.6l-18.5,2.3c-5.1,0.6-7.6-2.7-5.6-7.4l7.3-17.1
			C314.8,263.2,318.9,262.7,322,266.8z"/>
		<path class="st18" d="M62.8,170.8c0,0-216.3-114.5-346.5-28.4s-209.8,173.2-182.2,263.4s97.5,159.1,235.8,166.1
			s114.7-132.2,268.7-120.1S294.5,548.2,240,702.8S99.4,898.1-43.3,916.8c-142.6,18.7-192.9-240-321.5-227.8
			s-172.5,223.5-261.8,274.1s-147.3,0-147.3,0"/>
	</g>
</g>
<g id="Ipad">
</g>
<g id="Iphone">
	<g>
		<g>
			<g>
				
					<image style="overflow:visible;opacity:0.75;" width="981" height="1821" xlink:href="1A2BD516.png"  transform="matrix(0.24 0 0 0.24 -590.8162 1374.4669)">
				</image>
				<g>
					<path d="M-406.9,1781.7h-132.5c-15.9,0-28.8-12.9-28.8-28.8v-334.1c0-15.9,12.9-28.8,28.8-28.8h132.5
						c15.9,0,28.8,12.9,28.8,28.8v334.1C-378.1,1768.9-391,1781.7-406.9,1781.7z"/>
					<path class="st1" d="M-406.9,1781.7h-132.5c-15.9,0-28.8-12.9-28.8-28.8v-334.1c0-15.9,12.9-28.8,28.8-28.8h132.5
						c15.9,0,28.8,12.9,28.8,28.8v334.1C-378.1,1768.9-391,1781.7-406.9,1781.7z"/>
					<linearGradient id="SVGID_2_" gradientUnits="userSpaceOnUse" x1="-473.1762" y1="1782.7468" x2="-473.1762" y2="1389.0669">
						<stop  offset="0" style="stop-color:#FFFFFF"/>
						<stop  offset="1" style="stop-color:#000000"/>
					</linearGradient>
					<path class="st19" d="M-406.9,1781.7h-132.5c-15.9,0-28.8-12.9-28.8-28.8v-334.1c0-15.9,12.9-28.8,28.8-28.8h132.5
						c15.9,0,28.8,12.9,28.8,28.8v334.1C-378.1,1768.9-391,1781.7-406.9,1781.7z"/>
				</g>
			</g>
			<linearGradient id="SVGID_3_" gradientUnits="userSpaceOnUse" x1="-473.1762" y1="1734.4069" x2="-473.1762" y2="1437.4069">
				<stop  offset="0" style="stop-color:#3DDEED"/>
				<stop  offset="1" style="stop-color:#3DDEED;stop-opacity:0"/>
			</linearGradient>
			<rect x="-556.4" y="1437.4" class="st20" width="166.5" height="297"/>
			
				<image style="overflow:visible;" width="167" height="297" xlink:href="../../../../../../wamp/www/Website/3d Ears 2/images/Site-Iphone.jpg"  transform="matrix(1 0 0 1 -556.6763 1438.4069)">
			</image>
		</g>
		<line class="st21" x1="-488" y1="1416.3" x2="-461" y2="1416.3"/>
		<circle class="st22" cx="-498.5" cy="1416.3" r="1.5"/>
	</g>
</g>
<g id="header" class="st0">
	<text transform="matrix(1 0 0 1 484.0996 170.9413)" class="st23 st24 st25">RESPONSIVE WEB DESIGN</text>
	<text transform="matrix(1 0 0 1 429.5513 143.1763)" class="st23 st24 st25">.</text>
	<text transform="matrix(1 0 0 1 1529.5513 143.1763)" class="st23 st24 st25">.</text>
</g>
<g id="price_label">
</g>
</svg>
