<?xml version="1.0" encoding="utf-8"?>
<!-- Generator: Adobe Illustrator 18.0.0, SVG Export Plug-In . SVG Version: 6.00 Build 0)  -->
<!DOCTYPE svg PUBLIC "-//W3C//DTD SVG 1.1//EN" "http://www.w3.org/Graphics/SVG/1.1/DTD/svg11.dtd">
<svg version="1.1" id="Layer_1" xmlns="http://www.w3.org/2000/svg" xmlns:xlink="http://www.w3.org/1999/xlink" x="0px" y="0px"
	 viewBox="0 0 450 422.1" style="enable-background:new 0 0 450 422.1;" xml:space="preserve">
<style type="text/css">
	.st0{fill:none;stroke:#CCCCCC;stroke-width:15;stroke-miterlimit:10;}
	.st1{fill:none;stroke:#CCCCCC;stroke-width:20;stroke-miterlimit:10;}
</style>
<g>
	<path class="st0" d="M293.5,154.5h130.1c-19.1-60-72.1-115-130.1-137.4V154.5z"/>
	<rect x="152.5" y="157.5" class="st0" width="138" height="129"/>
	<path class="st0" d="M149.5,157.5H29.3c-5.8,19-8.9,39-8.9,59.9c0,24.3,4.2,48.1,11.9,69.1h117.2V157.5z"/>
	<path class="st0" d="M293.5,286.5h128c7.7-21,11.9-44.8,11.9-69.1c0-20.9-3.1-40.9-8.9-59.9H293.5V286.5z"/>
	<path class="st0" d="M152.5,154.5h138V16c-22-8.1-45.9-12.5-70.9-12.5c-23.5,0-46.1,3.9-67.1,11.2V154.5z"/>
	<path class="st0" d="M290.5,289.5h-138v115.8c21,7.3,43.6,11.2,67.1,11.2c24.9,0,48.9-4.4,70.9-12.5V289.5z"/>
	<path class="st0" d="M293.5,289.5v113.3c55-21.2,106.3-57.3,127-113.3H293.5z"/>
	<path class="st0" d="M149.5,154.5V15.7c-60,21.7-99.8,77.8-119.3,138.8H149.5z"/>
	<path class="st0" d="M149.5,289.5H33.4c21.1,57,59.1,94.1,116.1,114.7V289.5z"/>
</g>
<path class="st1" d="M433.3,269.4C373.6,221.4,318.7,125,277.8,125c-62.6,0-76.8,162.2-187.7,162.2c-18.8,0-42.8,0-69.7,0"/>
</svg>
